<?xml version="1.0" encoding="UTF-8"?>
<svg xmlns="http://www.w3.org/2000/svg" xmlns:xlink="http://www.w3.org/1999/xlink" width="1920pt" height="1080pt" viewBox="0 0 1920 1080" version="1.1">
<defs>
<g>
<symbol overflow="visible" id="glyph0-0">
<path style="stroke:none;" d="M 0.65625 2.359375 L 0.65625 -9.390625 L 7.328125 -9.390625 L 7.328125 2.359375 Z M 1.40625 1.609375 L 6.59375 1.609375 L 6.59375 -8.65625 L 1.40625 -8.65625 Z "/>
</symbol>
<symbol overflow="visible" id="glyph0-1">
<path style="stroke:none;" d="M 9.171875 -6.671875 C 8.972656 -7.523438 8.644531 -8.144531 8.1875 -8.53125 C 7.738281 -8.914062 7.097656 -9.109375 6.265625 -9.109375 C 5.253906 -9.109375 4.515625 -8.765625 4.046875 -8.078125 C 3.578125 -7.390625 3.34375 -6.3125 3.34375 -4.84375 C 3.34375 -3.382812 3.566406 -2.3125 4.015625 -1.625 C 4.472656 -0.9375 5.175781 -0.59375 6.125 -0.59375 C 6.488281 -0.59375 6.828125 -0.632812 7.140625 -0.71875 C 7.453125 -0.800781 7.738281 -0.925781 8 -1.09375 L 8 -3.765625 L 6.828125 -3.765625 L 6.828125 -4.546875 L 10.328125 -4.546875 L 10.328125 -0.8125 C 9.597656 -0.476562 8.867188 -0.226562 8.140625 -0.0625 C 7.410156 0.101562 6.671875 0.1875 5.921875 0.1875 C 4.253906 0.1875 2.941406 -0.257812 1.984375 -1.15625 C 1.035156 -2.050781 0.5625 -3.28125 0.5625 -4.84375 C 0.5625 -6.414062 1.035156 -7.648438 1.984375 -8.546875 C 2.941406 -9.441406 4.253906 -9.890625 5.921875 -9.890625 C 6.609375 -9.890625 7.285156 -9.816406 7.953125 -9.671875 C 8.628906 -9.535156 9.3125 -9.328125 10 -9.046875 L 10 -6.671875 Z "/>
</symbol>
<symbol overflow="visible" id="glyph0-2">
<path style="stroke:none;" d="M 0.625 0 L 0.625 -0.78125 L 1.875 -0.78125 L 1.875 -8.921875 L 0.625 -8.921875 L 0.625 -9.71875 L 5.625 -9.71875 L 5.625 -8.921875 L 4.375 -8.921875 L 4.375 -0.890625 L 8.203125 -0.890625 L 8.203125 -2.421875 L 9.078125 -2.421875 L 9.078125 0 Z "/>
</symbol>
<symbol overflow="visible" id="glyph0-3">
<path style="stroke:none;" d="M 5.796875 -0.59375 C 6.628906 -0.59375 7.242188 -0.941406 7.640625 -1.640625 C 8.046875 -2.335938 8.25 -3.40625 8.25 -4.84375 C 8.25 -6.289062 8.046875 -7.363281 7.640625 -8.0625 C 7.242188 -8.757812 6.628906 -9.109375 5.796875 -9.109375 C 4.972656 -9.109375 4.359375 -8.753906 3.953125 -8.046875 C 3.546875 -7.335938 3.34375 -6.269531 3.34375 -4.84375 C 3.34375 -3.425781 3.546875 -2.363281 3.953125 -1.65625 C 4.359375 -0.945312 4.972656 -0.59375 5.796875 -0.59375 Z M 5.796875 0.1875 C 4.160156 0.1875 2.878906 -0.257812 1.953125 -1.15625 C 1.023438 -2.050781 0.5625 -3.28125 0.5625 -4.84375 C 0.5625 -6.414062 1.023438 -7.648438 1.953125 -8.546875 C 2.878906 -9.441406 4.160156 -9.890625 5.796875 -9.890625 C 7.429688 -9.890625 8.710938 -9.441406 9.640625 -8.546875 C 10.566406 -7.648438 11.03125 -6.414062 11.03125 -4.84375 C 11.03125 -3.28125 10.566406 -2.050781 9.640625 -1.15625 C 8.710938 -0.257812 7.429688 0.1875 5.796875 0.1875 Z "/>
</symbol>
<symbol overflow="visible" id="glyph0-4">
<path style="stroke:none;" d="M 0.625 0 L 0.625 -0.78125 L 1.875 -0.78125 L 1.875 -8.921875 L 0.625 -8.921875 L 0.625 -9.71875 L 6.390625 -9.71875 C 7.566406 -9.71875 8.453125 -9.515625 9.046875 -9.109375 C 9.640625 -8.710938 9.9375 -8.113281 9.9375 -7.3125 C 9.9375 -6.738281 9.734375 -6.28125 9.328125 -5.9375 C 8.921875 -5.601562 8.3125 -5.390625 7.5 -5.296875 C 8.476562 -5.210938 9.226562 -4.953125 9.75 -4.515625 C 10.269531 -4.085938 10.53125 -3.519531 10.53125 -2.8125 C 10.53125 -1.84375 10.164062 -1.128906 9.4375 -0.671875 C 8.707031 -0.222656 7.570312 0 6.03125 0 Z M 4.375 -5.65625 L 5.21875 -5.65625 C 5.96875 -5.65625 6.519531 -5.789062 6.875 -6.0625 C 7.238281 -6.332031 7.421875 -6.75 7.421875 -7.3125 C 7.421875 -7.875 7.242188 -8.28125 6.890625 -8.53125 C 6.546875 -8.789062 5.988281 -8.921875 5.21875 -8.921875 L 4.375 -8.921875 Z M 4.375 -0.78125 L 5.296875 -0.78125 C 6.128906 -0.78125 6.742188 -0.945312 7.140625 -1.28125 C 7.546875 -1.613281 7.75 -2.125 7.75 -2.8125 C 7.75 -3.507812 7.546875 -4.023438 7.140625 -4.359375 C 6.734375 -4.703125 6.117188 -4.875 5.296875 -4.875 L 4.375 -4.875 Z "/>
</symbol>
<symbol overflow="visible" id="glyph0-5">
<path style="stroke:none;" d="M -0.109375 0 L -0.109375 -0.78125 L 0.6875 -0.78125 L 4.34375 -9.71875 L 5.90625 -9.71875 L 9.5625 -0.78125 L 10.484375 -0.78125 L 10.484375 0 L 5.9375 0 L 5.9375 -0.78125 L 6.890625 -0.78125 L 6.09375 -2.765625 L 2.4375 -2.765625 L 1.625 -0.78125 L 2.78125 -0.78125 L 2.78125 0 Z M 2.765625 -3.5625 L 5.765625 -3.5625 L 4.28125 -7.28125 Z "/>
</symbol>
<symbol overflow="visible" id="glyph0-6">
<path style="stroke:none;" d=""/>
</symbol>
<symbol overflow="visible" id="glyph0-7">
<path style="stroke:none;" d="M 1.03125 -0.46875 L 1.03125 -2.765625 L 1.859375 -2.765625 C 1.984375 -2.035156 2.28125 -1.488281 2.75 -1.125 C 3.21875 -0.769531 3.863281 -0.59375 4.6875 -0.59375 C 5.363281 -0.59375 5.875 -0.71875 6.21875 -0.96875 C 6.570312 -1.226562 6.75 -1.609375 6.75 -2.109375 C 6.75 -2.492188 6.628906 -2.796875 6.390625 -3.015625 C 6.160156 -3.234375 5.671875 -3.4375 4.921875 -3.625 L 3.46875 -3.984375 C 2.507812 -4.222656 1.835938 -4.554688 1.453125 -4.984375 C 1.066406 -5.421875 0.875 -6.039062 0.875 -6.84375 C 0.875 -7.800781 1.191406 -8.546875 1.828125 -9.078125 C 2.472656 -9.617188 3.375 -9.890625 4.53125 -9.890625 C 5.09375 -9.890625 5.679688 -9.84375 6.296875 -9.75 C 6.910156 -9.65625 7.550781 -9.507812 8.21875 -9.3125 L 8.21875 -7.171875 L 7.390625 -7.171875 C 7.265625 -7.835938 6.988281 -8.328125 6.5625 -8.640625 C 6.132812 -8.953125 5.53125 -9.109375 4.75 -9.109375 C 4.101562 -9.109375 3.613281 -8.992188 3.28125 -8.765625 C 2.957031 -8.546875 2.796875 -8.210938 2.796875 -7.765625 C 2.796875 -7.367188 2.90625 -7.0625 3.125 -6.84375 C 3.351562 -6.632812 3.910156 -6.421875 4.796875 -6.203125 L 6.25 -5.84375 C 7.15625 -5.613281 7.8125 -5.257812 8.21875 -4.78125 C 8.625 -4.300781 8.828125 -3.644531 8.828125 -2.8125 C 8.828125 -1.832031 8.488281 -1.085938 7.8125 -0.578125 C 7.132812 -0.0664062 6.140625 0.1875 4.828125 0.1875 C 4.191406 0.1875 3.5625 0.128906 2.9375 0.015625 C 2.3125 -0.0859375 1.675781 -0.25 1.03125 -0.46875 Z "/>
</symbol>
<symbol overflow="visible" id="glyph0-8">
<path style="stroke:none;" d="M 0.625 0 L 0.625 -0.78125 L 1.875 -0.78125 L 1.875 -8.921875 L 0.625 -8.921875 L 0.625 -9.71875 L 5.625 -9.71875 L 5.625 -8.921875 L 4.375 -8.921875 L 4.375 -0.78125 L 5.625 -0.78125 L 5.625 0 Z "/>
</symbol>
<symbol overflow="visible" id="glyph0-9">
<path style="stroke:none;" d="M 0.578125 0 L 0.578125 -0.78125 L 1.828125 -0.78125 L 1.828125 -8.921875 L 0.578125 -8.921875 L 0.578125 -9.71875 L 3.625 -9.71875 L 9.484375 -2.84375 L 9.484375 -8.921875 L 8.25 -8.921875 L 8.25 -9.71875 L 11.65625 -9.71875 L 11.65625 -8.921875 L 10.40625 -8.921875 L 10.40625 0 L 8.703125 0 L 2.75 -7.015625 L 2.75 -0.78125 L 3.984375 -0.78125 L 3.984375 0 Z "/>
</symbol>
</g>
</defs>
<g id="surface2">
<g style="fill:rgb(100%,100%,100%);fill-opacity:1;">
  <use xlink:href="#glyph0-1" x="30" y="32.519531"/>
  <use xlink:href="#glyph0-2" x="41" y="32.519531"/>
  <use xlink:href="#glyph0-3" x="50" y="32.519531"/>
  <use xlink:href="#glyph0-4" x="62" y="32.519531"/>
  <use xlink:href="#glyph0-5" x="73" y="32.519531"/>
  <use xlink:href="#glyph0-2" x="83" y="32.519531"/>
  <use xlink:href="#glyph0-6" x="92" y="32.519531"/>
  <use xlink:href="#glyph0-7" x="97" y="32.519531"/>
  <use xlink:href="#glyph0-8" x="107" y="32.519531"/>
  <use xlink:href="#glyph0-1" x="113" y="32.519531"/>
  <use xlink:href="#glyph0-9" x="124" y="32.519531"/>
  <use xlink:href="#glyph0-5" x="136" y="32.519531"/>
  <use xlink:href="#glyph0-2" x="146" y="32.519531"/>
</g>
</g>
</svg>
